<mxfile modified="2021-10-19T17:09:45.469Z" host="app.diagrams.net" agent="5.0 (Macintosh; Intel Mac OS X 10_15_7) AppleWebKit/537.36 (KHTML, like Gecko) Chrome/94.0.4606.71 Safari/537.36" etag="WMdlFJ6nNU-7kkb3jKJ6" version="15.5.6" type="github">
  <diagram id="Ht1M8jgEwFfnCIfOTk4-" name="Page-1">
    <mxGraphModel dx="1426" dy="698" grid="1" gridSize="10" guides="1" tooltips="1" connect="1" arrows="1" fold="1" page="1" pageScale="1" pageWidth="1169" pageHeight="827" math="0" shadow="0">
      <root>
        <mxCell id="0" />
        <mxCell id="1" parent="0" />
        <mxCell id="Bm9dChhNE6_kYrQnx7Yv-4" value="VPC" style="points=[[0,0],[0.25,0],[0.5,0],[0.75,0],[1,0],[1,0.25],[1,0.5],[1,0.75],[1,1],[0.75,1],[0.5,1],[0.25,1],[0,1],[0,0.75],[0,0.5],[0,0.25]];outlineConnect=0;gradientColor=none;html=1;whiteSpace=wrap;fontSize=12;fontStyle=0;shape=mxgraph.aws4.group;grIcon=mxgraph.aws4.group_vpc;strokeColor=#248814;fillColor=none;verticalAlign=top;align=left;spacingLeft=30;fontColor=#AAB7B8;dashed=0;" parent="1" vertex="1">
          <mxGeometry x="120" y="80" width="1000" height="510" as="geometry" />
        </mxCell>
        <mxCell id="Bm9dChhNE6_kYrQnx7Yv-30" value="Availability &#xa;Zone 1. " style="rounded=1;arcSize=10;dashed=1;strokeColor=#F59D56;fillColor=none;gradientColor=none;dashPattern=8 4;strokeWidth=2;fontColor=#FF9933;verticalAlign=middle;labelPosition=left;verticalLabelPosition=middle;align=right;" parent="1" vertex="1">
          <mxGeometry x="370" y="105" width="720" height="199.5" as="geometry" />
        </mxCell>
        <mxCell id="Bm9dChhNE6_kYrQnx7Yv-32" value="Private subnet" style="points=[[0,0],[0.25,0],[0.5,0],[0.75,0],[1,0],[1,0.25],[1,0.5],[1,0.75],[1,1],[0.75,1],[0.5,1],[0.25,1],[0,1],[0,0.75],[0,0.5],[0,0.25]];outlineConnect=0;gradientColor=none;html=1;whiteSpace=wrap;fontSize=12;fontStyle=0;shape=mxgraph.aws4.group;grIcon=mxgraph.aws4.group_security_group;grStroke=0;strokeColor=#147EBA;fillColor=#E6F2F8;verticalAlign=top;align=center;spacingLeft=30;fontColor=#147EBA;dashed=0;labelPosition=center;verticalLabelPosition=bottom;" parent="1" vertex="1">
          <mxGeometry x="404" y="135" width="669" height="130" as="geometry" />
        </mxCell>
        <mxCell id="Bm9dChhNE6_kYrQnx7Yv-36" value="Availability &#xa;Zone 2. " style="rounded=1;arcSize=10;dashed=1;strokeColor=#F59D56;fillColor=none;gradientColor=none;dashPattern=8 4;strokeWidth=2;verticalAlign=middle;fontColor=#FF9933;labelPosition=left;verticalLabelPosition=middle;align=right;" parent="1" vertex="1">
          <mxGeometry x="370" y="354" width="720" height="199.5" as="geometry" />
        </mxCell>
        <mxCell id="MH6_EnVXU-AyahLenh14-78" style="edgeStyle=orthogonalEdgeStyle;curved=1;rounded=0;orthogonalLoop=1;jettySize=auto;html=1;entryX=1;entryY=0.5;entryDx=0;entryDy=0;fillColor=#dae8fc;strokeColor=#6c8ebf;" edge="1" parent="1" source="Bm9dChhNE6_kYrQnx7Yv-38" target="MH6_EnVXU-AyahLenh14-72">
          <mxGeometry relative="1" as="geometry" />
        </mxCell>
        <mxCell id="Bm9dChhNE6_kYrQnx7Yv-38" value="Private subnet" style="points=[[0,0],[0.25,0],[0.5,0],[0.75,0],[1,0],[1,0.25],[1,0.5],[1,0.75],[1,1],[0.75,1],[0.5,1],[0.25,1],[0,1],[0,0.75],[0,0.5],[0,0.25]];outlineConnect=0;gradientColor=none;html=1;whiteSpace=wrap;fontSize=12;fontStyle=0;shape=mxgraph.aws4.group;grIcon=mxgraph.aws4.group_security_group;grStroke=0;strokeColor=#147EBA;fillColor=#E6F2F8;verticalAlign=top;align=center;spacingLeft=30;fontColor=#147EBA;dashed=0;labelPosition=center;verticalLabelPosition=bottom;" parent="1" vertex="1">
          <mxGeometry x="404" y="388.75" width="669" height="130" as="geometry" />
        </mxCell>
        <mxCell id="Bm9dChhNE6_kYrQnx7Yv-34" value="Frontend Services" style="fillColor=none;strokeColor=#5A6C86;dashed=1;verticalAlign=bottom;fontStyle=0;fontColor=#5A6C86;labelPosition=center;verticalLabelPosition=top;align=center;" parent="1" vertex="1">
          <mxGeometry x="469" y="154" width="130" height="350" as="geometry" />
        </mxCell>
        <mxCell id="Bm9dChhNE6_kYrQnx7Yv-35" value="API Services" style="fillColor=none;strokeColor=#5A6C86;dashed=1;verticalAlign=bottom;fontStyle=0;fontColor=#5A6C86;labelPosition=center;verticalLabelPosition=top;align=center;" parent="1" vertex="1">
          <mxGeometry x="738" y="153" width="130" height="350" as="geometry" />
        </mxCell>
        <mxCell id="Bm9dChhNE6_kYrQnx7Yv-37" value="Database Services" style="fillColor=none;strokeColor=#5A6C86;dashed=1;verticalAlign=bottom;fontStyle=0;fontColor=#5A6C86;labelPosition=center;verticalLabelPosition=top;align=center;" parent="1" vertex="1">
          <mxGeometry x="914" y="154" width="130" height="350" as="geometry" />
        </mxCell>
        <mxCell id="kDZL8D2RY44nvhGmX9FH-80" style="edgeStyle=orthogonalEdgeStyle;rounded=1;jumpStyle=none;orthogonalLoop=1;jettySize=auto;html=1;fontColor=#009900;endArrow=classicThin;endFill=1;strokeWidth=1.5;fillColor=#dae8fc;strokeColor=#6c8ebf;" parent="1" source="kDZL8D2RY44nvhGmX9FH-68" target="Bm9dChhNE6_kYrQnx7Yv-35" edge="1">
          <mxGeometry relative="1" as="geometry" />
        </mxCell>
        <mxCell id="MH6_EnVXU-AyahLenh14-1" value="Security Group" style="fontStyle=0;verticalAlign=top;align=center;spacingTop=-2;fillColor=none;rounded=0;whiteSpace=wrap;html=1;strokeColor=#FF0000;strokeWidth=2;dashed=1;container=1;collapsible=0;expand=0;recursiveResize=0;" vertex="1" parent="1">
          <mxGeometry x="150" y="240" width="160" height="200" as="geometry" />
        </mxCell>
        <mxCell id="kDZL8D2RY44nvhGmX9FH-79" value="&lt;font color=&quot;#009900&quot;&gt;Public Subnet&lt;/font&gt;" style="sketch=0;outlineConnect=0;html=1;whiteSpace=wrap;fontSize=12;fontStyle=0;shape=mxgraph.aws4.group;grIcon=mxgraph.aws4.group_subnet;strokeColor=#009900;fillColor=#d5e8d4;verticalAlign=top;align=left;spacingLeft=30;dashed=0;labelBackgroundColor=none;labelBorderColor=none;shadow=0;strokeWidth=0;" parent="MH6_EnVXU-AyahLenh14-1" vertex="1">
          <mxGeometry x="35" y="26.379999999999995" width="100" height="163.13" as="geometry" />
        </mxCell>
        <mxCell id="Bm9dChhNE6_kYrQnx7Yv-1" value="Application&lt;br&gt;Load Balancer" style="outlineConnect=0;dashed=0;verticalLabelPosition=bottom;verticalAlign=top;align=center;html=1;shape=mxgraph.aws3.application_load_balancer;fillColor=#F58536;gradientColor=none;" parent="MH6_EnVXU-AyahLenh14-1" vertex="1">
          <mxGeometry x="50" y="72.94" width="70" height="70" as="geometry" />
        </mxCell>
        <mxCell id="MH6_EnVXU-AyahLenh14-7" value="Security Group" style="fontStyle=0;verticalAlign=top;align=center;spacingTop=-2;fillColor=none;rounded=0;whiteSpace=wrap;html=1;strokeColor=#FF0000;strokeWidth=2;dashed=1;container=1;collapsible=0;expand=0;recursiveResize=0;" vertex="1" parent="1">
          <mxGeometry x="454" y="115" width="160" height="425" as="geometry" />
        </mxCell>
        <mxCell id="kDZL8D2RY44nvhGmX9FH-7" value="Fargate" style="sketch=0;points=[[0,0,0],[0.25,0,0],[0.5,0,0],[0.75,0,0],[1,0,0],[0,1,0],[0.25,1,0],[0.5,1,0],[0.75,1,0],[1,1,0],[0,0.25,0],[0,0.5,0],[0,0.75,0],[1,0.25,0],[1,0.5,0],[1,0.75,0]];outlineConnect=0;fontColor=#232F3E;gradientColor=#F78E04;gradientDirection=north;fillColor=#D05C17;strokeColor=#ffffff;dashed=0;verticalLabelPosition=bottom;verticalAlign=top;align=center;html=1;fontSize=12;fontStyle=0;aspect=fixed;shape=mxgraph.aws4.resourceIcon;resIcon=mxgraph.aws4.fargate;" parent="MH6_EnVXU-AyahLenh14-7" vertex="1">
          <mxGeometry x="60" y="314" width="40" height="40" as="geometry" />
        </mxCell>
        <mxCell id="kDZL8D2RY44nvhGmX9FH-59" value="2" style="ellipse;whiteSpace=wrap;html=1;aspect=fixed;strokeWidth=2;fontFamily=Tahoma;spacingBottom=4;spacingRight=2;strokeColor=#d79b00;verticalAlign=bottom;fillColor=#FF9933;" parent="MH6_EnVXU-AyahLenh14-7" vertex="1">
          <mxGeometry x="50" y="309" width="20" height="20" as="geometry" />
        </mxCell>
        <mxCell id="MH6_EnVXU-AyahLenh14-64" value="Fargate" style="sketch=0;points=[[0,0,0],[0.25,0,0],[0.5,0,0],[0.75,0,0],[1,0,0],[0,1,0],[0.25,1,0],[0.5,1,0],[0.75,1,0],[1,1,0],[0,0.25,0],[0,0.5,0],[0,0.75,0],[1,0.25,0],[1,0.5,0],[1,0.75,0]];outlineConnect=0;fontColor=#232F3E;gradientColor=#F78E04;gradientDirection=north;fillColor=#D05C17;strokeColor=#ffffff;dashed=0;verticalLabelPosition=bottom;verticalAlign=top;align=center;html=1;fontSize=12;fontStyle=0;aspect=fixed;shape=mxgraph.aws4.resourceIcon;resIcon=mxgraph.aws4.fargate;" vertex="1" parent="MH6_EnVXU-AyahLenh14-7">
          <mxGeometry x="60" y="85" width="40" height="40" as="geometry" />
        </mxCell>
        <mxCell id="MH6_EnVXU-AyahLenh14-65" value="2" style="ellipse;whiteSpace=wrap;html=1;aspect=fixed;strokeWidth=2;fontFamily=Tahoma;spacingBottom=4;spacingRight=2;strokeColor=#d79b00;verticalAlign=bottom;fillColor=#FF9933;" vertex="1" parent="MH6_EnVXU-AyahLenh14-7">
          <mxGeometry x="50" y="75" width="20" height="20" as="geometry" />
        </mxCell>
        <mxCell id="MH6_EnVXU-AyahLenh14-8" value="Security Group" style="fontStyle=0;verticalAlign=top;align=center;spacingTop=-2;fillColor=none;rounded=0;whiteSpace=wrap;html=1;strokeColor=#FF0000;strokeWidth=2;dashed=1;container=1;collapsible=0;expand=0;recursiveResize=0;" vertex="1" parent="1">
          <mxGeometry x="630" y="115" width="251" height="425" as="geometry" />
        </mxCell>
        <mxCell id="MH6_EnVXU-AyahLenh14-80" value="3" style="ellipse;whiteSpace=wrap;html=1;aspect=fixed;strokeWidth=2;fontFamily=Tahoma;spacingBottom=4;spacingRight=2;strokeColor=#d79b00;verticalAlign=bottom;fillColor=#FF9933;" vertex="1" parent="MH6_EnVXU-AyahLenh14-8">
          <mxGeometry x="141" y="315" width="20" height="20" as="geometry" />
        </mxCell>
        <mxCell id="MH6_EnVXU-AyahLenh14-81" value="Fargate" style="sketch=0;points=[[0,0,0],[0.25,0,0],[0.5,0,0],[0.75,0,0],[1,0,0],[0,1,0],[0.25,1,0],[0.5,1,0],[0.75,1,0],[1,1,0],[0,0.25,0],[0,0.5,0],[0,0.75,0],[1,0.25,0],[1,0.5,0],[1,0.75,0]];outlineConnect=0;fontColor=#232F3E;gradientColor=#F78E04;gradientDirection=north;fillColor=#D05C17;strokeColor=#ffffff;dashed=0;verticalLabelPosition=bottom;verticalAlign=top;align=center;html=1;fontSize=12;fontStyle=0;aspect=fixed;shape=mxgraph.aws4.resourceIcon;resIcon=mxgraph.aws4.fargate;labelPosition=center;" vertex="1" parent="MH6_EnVXU-AyahLenh14-8">
          <mxGeometry x="153" y="321" width="40" height="40" as="geometry" />
        </mxCell>
        <mxCell id="MH6_EnVXU-AyahLenh14-82" value="3" style="ellipse;whiteSpace=wrap;html=1;aspect=fixed;strokeWidth=2;fontFamily=Tahoma;spacingBottom=4;spacingRight=2;strokeColor=#d79b00;verticalAlign=bottom;fillColor=#FF9933;" vertex="1" parent="MH6_EnVXU-AyahLenh14-8">
          <mxGeometry x="141" y="75" width="20" height="20" as="geometry" />
        </mxCell>
        <mxCell id="MH6_EnVXU-AyahLenh14-83" value="Fargate" style="sketch=0;points=[[0,0,0],[0.25,0,0],[0.5,0,0],[0.75,0,0],[1,0,0],[0,1,0],[0.25,1,0],[0.5,1,0],[0.75,1,0],[1,1,0],[0,0.25,0],[0,0.5,0],[0,0.75,0],[1,0.25,0],[1,0.5,0],[1,0.75,0]];outlineConnect=0;fontColor=#232F3E;gradientColor=#F78E04;gradientDirection=north;fillColor=#D05C17;strokeColor=#ffffff;dashed=0;verticalLabelPosition=bottom;verticalAlign=top;align=center;html=1;fontSize=12;fontStyle=0;aspect=fixed;shape=mxgraph.aws4.resourceIcon;resIcon=mxgraph.aws4.fargate;labelPosition=center;" vertex="1" parent="MH6_EnVXU-AyahLenh14-8">
          <mxGeometry x="153" y="81" width="40" height="40" as="geometry" />
        </mxCell>
        <mxCell id="MH6_EnVXU-AyahLenh14-9" value="Security Group" style="fontStyle=0;verticalAlign=top;align=center;spacingTop=-2;fillColor=none;rounded=0;whiteSpace=wrap;html=1;strokeColor=#FF0000;strokeWidth=2;dashed=1;container=1;collapsible=0;expand=0;recursiveResize=0;" vertex="1" parent="1">
          <mxGeometry x="894" y="115" width="170" height="425" as="geometry" />
        </mxCell>
        <mxCell id="MH6_EnVXU-AyahLenh14-11" value="KMS" style="sketch=0;points=[[0,0,0],[0.25,0,0],[0.5,0,0],[0.75,0,0],[1,0,0],[0,1,0],[0.25,1,0],[0.5,1,0],[0.75,1,0],[1,1,0],[0,0.25,0],[0,0.5,0],[0,0.75,0],[1,0.25,0],[1,0.5,0],[1,0.75,0]];outlineConnect=0;fontColor=#232F3E;gradientColor=#F54749;gradientDirection=north;fillColor=#C7131F;strokeColor=#ffffff;dashed=0;verticalLabelPosition=bottom;verticalAlign=top;align=center;html=1;fontSize=12;fontStyle=0;aspect=fixed;shape=mxgraph.aws4.resourceIcon;resIcon=mxgraph.aws4.key_management_service;" vertex="1" parent="1">
          <mxGeometry x="966" y="630" width="78" height="78" as="geometry" />
        </mxCell>
        <mxCell id="MH6_EnVXU-AyahLenh14-54" value="Public Subnet Route Table" style="shape=table;startSize=30;container=1;collapsible=0;childLayout=tableLayout;fixedRows=1;rowLines=0;fontStyle=1;align=center;pointerEvents=1;" vertex="1" parent="1">
          <mxGeometry x="190" y="630" width="170" height="120" as="geometry" />
        </mxCell>
        <mxCell id="MH6_EnVXU-AyahLenh14-55" value="" style="shape=partialRectangle;html=1;whiteSpace=wrap;collapsible=0;dropTarget=0;pointerEvents=1;fillColor=none;top=0;left=0;bottom=1;right=0;points=[[0,0.5],[1,0.5]];portConstraint=eastwest;" vertex="1" parent="MH6_EnVXU-AyahLenh14-54">
          <mxGeometry y="30" width="170" height="30" as="geometry" />
        </mxCell>
        <mxCell id="MH6_EnVXU-AyahLenh14-56" value="Destination" style="shape=partialRectangle;html=1;whiteSpace=wrap;connectable=0;fillColor=#f5f5f5;top=0;left=0;bottom=0;right=0;overflow=hidden;pointerEvents=1;fontColor=#333333;strokeColor=#666666;" vertex="1" parent="MH6_EnVXU-AyahLenh14-55">
          <mxGeometry width="84" height="30" as="geometry">
            <mxRectangle width="84" height="30" as="alternateBounds" />
          </mxGeometry>
        </mxCell>
        <mxCell id="MH6_EnVXU-AyahLenh14-57" value="Target" style="shape=partialRectangle;html=1;whiteSpace=wrap;connectable=0;fillColor=#f5f5f5;top=0;left=0;bottom=0;right=0;align=left;spacingLeft=6;overflow=hidden;pointerEvents=1;fontColor=#333333;strokeColor=#666666;" vertex="1" parent="MH6_EnVXU-AyahLenh14-55">
          <mxGeometry x="84" width="86" height="30" as="geometry">
            <mxRectangle width="86" height="30" as="alternateBounds" />
          </mxGeometry>
        </mxCell>
        <mxCell id="MH6_EnVXU-AyahLenh14-58" value="" style="shape=partialRectangle;html=1;whiteSpace=wrap;collapsible=0;dropTarget=0;pointerEvents=1;fillColor=none;top=0;left=0;bottom=0;right=0;points=[[0,0.5],[1,0.5]];portConstraint=eastwest;" vertex="1" parent="MH6_EnVXU-AyahLenh14-54">
          <mxGeometry y="60" width="170" height="30" as="geometry" />
        </mxCell>
        <mxCell id="MH6_EnVXU-AyahLenh14-59" value="2" style="shape=partialRectangle;html=1;whiteSpace=wrap;connectable=0;fillColor=none;top=0;left=0;bottom=0;right=0;overflow=hidden;pointerEvents=1;" vertex="1" parent="MH6_EnVXU-AyahLenh14-58">
          <mxGeometry width="84" height="30" as="geometry">
            <mxRectangle width="84" height="30" as="alternateBounds" />
          </mxGeometry>
        </mxCell>
        <mxCell id="MH6_EnVXU-AyahLenh14-60" value="Value 2" style="shape=partialRectangle;html=1;whiteSpace=wrap;connectable=0;fillColor=none;top=0;left=0;bottom=0;right=0;align=left;spacingLeft=6;overflow=hidden;pointerEvents=1;labelBorderColor=none;" vertex="1" parent="MH6_EnVXU-AyahLenh14-58">
          <mxGeometry x="84" width="86" height="30" as="geometry">
            <mxRectangle width="86" height="30" as="alternateBounds" />
          </mxGeometry>
        </mxCell>
        <mxCell id="MH6_EnVXU-AyahLenh14-61" value="" style="shape=partialRectangle;html=1;whiteSpace=wrap;collapsible=0;dropTarget=0;pointerEvents=1;fillColor=none;top=0;left=0;bottom=0;right=0;points=[[0,0.5],[1,0.5]];portConstraint=eastwest;" vertex="1" parent="MH6_EnVXU-AyahLenh14-54">
          <mxGeometry y="90" width="170" height="30" as="geometry" />
        </mxCell>
        <mxCell id="MH6_EnVXU-AyahLenh14-62" value="3" style="shape=partialRectangle;html=1;whiteSpace=wrap;connectable=0;fillColor=none;top=0;left=0;bottom=0;right=0;overflow=hidden;pointerEvents=1;" vertex="1" parent="MH6_EnVXU-AyahLenh14-61">
          <mxGeometry width="84" height="30" as="geometry">
            <mxRectangle width="84" height="30" as="alternateBounds" />
          </mxGeometry>
        </mxCell>
        <mxCell id="MH6_EnVXU-AyahLenh14-63" value="Value 3" style="shape=partialRectangle;html=1;whiteSpace=wrap;connectable=0;fillColor=none;top=0;left=0;bottom=0;right=0;align=left;spacingLeft=6;overflow=hidden;pointerEvents=1;" vertex="1" parent="MH6_EnVXU-AyahLenh14-61">
          <mxGeometry x="84" width="86" height="30" as="geometry">
            <mxRectangle width="86" height="30" as="alternateBounds" />
          </mxGeometry>
        </mxCell>
        <mxCell id="kDZL8D2RY44nvhGmX9FH-68" value="&lt;font color=&quot;#000000&quot;&gt;Internal &lt;br&gt;Load Balancer&lt;/font&gt;" style="outlineConnect=0;dashed=0;verticalLabelPosition=bottom;verticalAlign=top;align=center;html=1;shape=mxgraph.aws3.classic_load_balancer;fillColor=#F58536;gradientColor=none;fontColor=#FF9933;" parent="1" vertex="1">
          <mxGeometry x="646" y="292" width="69" height="72" as="geometry" />
        </mxCell>
        <mxCell id="kDZL8D2RY44nvhGmX9FH-9" value="Aurora" style="sketch=0;points=[[0,0,0],[0.25,0,0],[0.5,0,0],[0.75,0,0],[1,0,0],[0,1,0],[0.25,1,0],[0.5,1,0],[0.75,1,0],[1,1,0],[0,0.25,0],[0,0.5,0],[0,0.75,0],[1,0.25,0],[1,0.5,0],[1,0.75,0]];outlineConnect=0;fontColor=#232F3E;gradientColor=#4D72F3;gradientDirection=north;fillColor=#3334B9;strokeColor=#ffffff;dashed=0;verticalLabelPosition=bottom;verticalAlign=top;align=center;html=1;fontSize=12;fontStyle=0;aspect=fixed;shape=mxgraph.aws4.resourceIcon;resIcon=mxgraph.aws4.aurora;" parent="1" vertex="1">
          <mxGeometry x="949" y="174.75" width="60" height="60" as="geometry" />
        </mxCell>
        <mxCell id="kDZL8D2RY44nvhGmX9FH-10" value="Aurora" style="sketch=0;points=[[0,0,0],[0.25,0,0],[0.5,0,0],[0.75,0,0],[1,0,0],[0,1,0],[0.25,1,0],[0.5,1,0],[0.75,1,0],[1,1,0],[0,0.25,0],[0,0.5,0],[0,0.75,0],[1,0.25,0],[1,0.5,0],[1,0.75,0]];outlineConnect=0;fontColor=#232F3E;gradientColor=#4D72F3;gradientDirection=north;fillColor=#3334B9;strokeColor=#ffffff;dashed=0;verticalLabelPosition=bottom;verticalAlign=top;align=center;html=1;fontSize=12;fontStyle=0;aspect=fixed;shape=mxgraph.aws4.resourceIcon;resIcon=mxgraph.aws4.aurora;" parent="1" vertex="1">
          <mxGeometry x="949" y="414" width="60" height="60" as="geometry" />
        </mxCell>
        <mxCell id="kDZL8D2RY44nvhGmX9FH-54" value="" style="endArrow=classic;startArrow=classic;html=1;rounded=1;strokeWidth=1.5;edgeStyle=orthogonalEdgeStyle;elbow=vertical;jumpStyle=none;exitX=1;exitY=0.5;exitDx=0;exitDy=0;exitPerimeter=0;entryX=1;entryY=0.5;entryDx=0;entryDy=0;entryPerimeter=0;fillColor=#dae8fc;strokeColor=#6c8ebf;" parent="1" source="kDZL8D2RY44nvhGmX9FH-10" target="kDZL8D2RY44nvhGmX9FH-9" edge="1">
          <mxGeometry width="50" height="50" relative="1" as="geometry">
            <mxPoint x="1243" y="340" as="sourcePoint" />
            <mxPoint x="1293" y="290" as="targetPoint" />
            <Array as="points">
              <mxPoint x="1033" y="444" />
              <mxPoint x="1033" y="205" />
            </Array>
          </mxGeometry>
        </mxCell>
        <mxCell id="kDZL8D2RY44nvhGmX9FH-61" value="4" style="ellipse;whiteSpace=wrap;html=1;aspect=fixed;strokeWidth=2;fontFamily=Tahoma;spacingBottom=4;spacingRight=2;strokeColor=#d79b00;verticalAlign=bottom;fillColor=#FF9933;" parent="1" vertex="1">
          <mxGeometry x="906" y="146" width="20" height="20" as="geometry" />
        </mxCell>
        <mxCell id="MH6_EnVXU-AyahLenh14-68" value="Private Subnet Route Table" style="shape=table;startSize=30;container=1;collapsible=0;childLayout=tableLayout;fixedRows=1;rowLines=0;fontStyle=1;align=center;pointerEvents=1;" vertex="1" parent="1">
          <mxGeometry x="390" y="630" width="170" height="120" as="geometry" />
        </mxCell>
        <mxCell id="MH6_EnVXU-AyahLenh14-69" value="" style="shape=partialRectangle;html=1;whiteSpace=wrap;collapsible=0;dropTarget=0;pointerEvents=1;fillColor=none;top=0;left=0;bottom=1;right=0;points=[[0,0.5],[1,0.5]];portConstraint=eastwest;" vertex="1" parent="MH6_EnVXU-AyahLenh14-68">
          <mxGeometry y="30" width="170" height="30" as="geometry" />
        </mxCell>
        <mxCell id="MH6_EnVXU-AyahLenh14-70" value="Destination" style="shape=partialRectangle;html=1;whiteSpace=wrap;connectable=0;fillColor=#f5f5f5;top=0;left=0;bottom=0;right=0;overflow=hidden;pointerEvents=1;fontColor=#333333;strokeColor=#666666;" vertex="1" parent="MH6_EnVXU-AyahLenh14-69">
          <mxGeometry width="84" height="30" as="geometry">
            <mxRectangle width="84" height="30" as="alternateBounds" />
          </mxGeometry>
        </mxCell>
        <mxCell id="MH6_EnVXU-AyahLenh14-71" value="Target" style="shape=partialRectangle;html=1;whiteSpace=wrap;connectable=0;fillColor=#f5f5f5;top=0;left=0;bottom=0;right=0;align=left;spacingLeft=6;overflow=hidden;pointerEvents=1;fontColor=#333333;strokeColor=#666666;" vertex="1" parent="MH6_EnVXU-AyahLenh14-69">
          <mxGeometry x="84" width="86" height="30" as="geometry">
            <mxRectangle width="86" height="30" as="alternateBounds" />
          </mxGeometry>
        </mxCell>
        <mxCell id="MH6_EnVXU-AyahLenh14-72" value="" style="shape=partialRectangle;html=1;whiteSpace=wrap;collapsible=0;dropTarget=0;pointerEvents=1;fillColor=none;top=0;left=0;bottom=0;right=0;points=[[0,0.5],[1,0.5]];portConstraint=eastwest;" vertex="1" parent="MH6_EnVXU-AyahLenh14-68">
          <mxGeometry y="60" width="170" height="30" as="geometry" />
        </mxCell>
        <mxCell id="MH6_EnVXU-AyahLenh14-73" value="2" style="shape=partialRectangle;html=1;whiteSpace=wrap;connectable=0;fillColor=none;top=0;left=0;bottom=0;right=0;overflow=hidden;pointerEvents=1;" vertex="1" parent="MH6_EnVXU-AyahLenh14-72">
          <mxGeometry width="84" height="30" as="geometry">
            <mxRectangle width="84" height="30" as="alternateBounds" />
          </mxGeometry>
        </mxCell>
        <mxCell id="MH6_EnVXU-AyahLenh14-74" value="Value 2" style="shape=partialRectangle;html=1;whiteSpace=wrap;connectable=0;fillColor=none;top=0;left=0;bottom=0;right=0;align=left;spacingLeft=6;overflow=hidden;pointerEvents=1;labelBorderColor=none;" vertex="1" parent="MH6_EnVXU-AyahLenh14-72">
          <mxGeometry x="84" width="86" height="30" as="geometry">
            <mxRectangle width="86" height="30" as="alternateBounds" />
          </mxGeometry>
        </mxCell>
        <mxCell id="MH6_EnVXU-AyahLenh14-75" value="" style="shape=partialRectangle;html=1;whiteSpace=wrap;collapsible=0;dropTarget=0;pointerEvents=1;fillColor=none;top=0;left=0;bottom=0;right=0;points=[[0,0.5],[1,0.5]];portConstraint=eastwest;" vertex="1" parent="MH6_EnVXU-AyahLenh14-68">
          <mxGeometry y="90" width="170" height="30" as="geometry" />
        </mxCell>
        <mxCell id="MH6_EnVXU-AyahLenh14-76" value="3" style="shape=partialRectangle;html=1;whiteSpace=wrap;connectable=0;fillColor=none;top=0;left=0;bottom=0;right=0;overflow=hidden;pointerEvents=1;" vertex="1" parent="MH6_EnVXU-AyahLenh14-75">
          <mxGeometry width="84" height="30" as="geometry">
            <mxRectangle width="84" height="30" as="alternateBounds" />
          </mxGeometry>
        </mxCell>
        <mxCell id="MH6_EnVXU-AyahLenh14-77" value="Value 3" style="shape=partialRectangle;html=1;whiteSpace=wrap;connectable=0;fillColor=none;top=0;left=0;bottom=0;right=0;align=left;spacingLeft=6;overflow=hidden;pointerEvents=1;" vertex="1" parent="MH6_EnVXU-AyahLenh14-75">
          <mxGeometry x="84" width="86" height="30" as="geometry">
            <mxRectangle width="86" height="30" as="alternateBounds" />
          </mxGeometry>
        </mxCell>
        <mxCell id="MH6_EnVXU-AyahLenh14-79" style="edgeStyle=orthogonalEdgeStyle;curved=1;rounded=0;orthogonalLoop=1;jettySize=auto;html=1;fillColor=#dae8fc;strokeColor=#6c8ebf;" edge="1" parent="1" source="kDZL8D2RY44nvhGmX9FH-79" target="MH6_EnVXU-AyahLenh14-54">
          <mxGeometry relative="1" as="geometry" />
        </mxCell>
        <mxCell id="MH6_EnVXU-AyahLenh14-84" value="Security Group" style="shape=table;startSize=30;container=1;collapsible=0;childLayout=tableLayout;fixedRows=1;rowLines=0;fontStyle=1;align=center;pointerEvents=1;" vertex="1" parent="1">
          <mxGeometry x="599" y="630" width="170" height="120" as="geometry" />
        </mxCell>
        <mxCell id="MH6_EnVXU-AyahLenh14-85" value="" style="shape=partialRectangle;html=1;whiteSpace=wrap;collapsible=0;dropTarget=0;pointerEvents=1;fillColor=none;top=0;left=0;bottom=1;right=0;points=[[0,0.5],[1,0.5]];portConstraint=eastwest;" vertex="1" parent="MH6_EnVXU-AyahLenh14-84">
          <mxGeometry y="30" width="170" height="30" as="geometry" />
        </mxCell>
        <mxCell id="MH6_EnVXU-AyahLenh14-86" value="Inbound" style="shape=partialRectangle;html=1;whiteSpace=wrap;connectable=0;fillColor=#f5f5f5;top=0;left=0;bottom=0;right=0;overflow=hidden;pointerEvents=1;fontColor=#333333;strokeColor=#666666;" vertex="1" parent="MH6_EnVXU-AyahLenh14-85">
          <mxGeometry width="84" height="30" as="geometry">
            <mxRectangle width="84" height="30" as="alternateBounds" />
          </mxGeometry>
        </mxCell>
        <mxCell id="MH6_EnVXU-AyahLenh14-87" value="Outbound" style="shape=partialRectangle;html=1;whiteSpace=wrap;connectable=0;fillColor=#f5f5f5;top=0;left=0;bottom=0;right=0;align=left;spacingLeft=6;overflow=hidden;pointerEvents=1;fontColor=#333333;strokeColor=#666666;" vertex="1" parent="MH6_EnVXU-AyahLenh14-85">
          <mxGeometry x="84" width="86" height="30" as="geometry">
            <mxRectangle width="86" height="30" as="alternateBounds" />
          </mxGeometry>
        </mxCell>
        <mxCell id="MH6_EnVXU-AyahLenh14-88" value="" style="shape=partialRectangle;html=1;whiteSpace=wrap;collapsible=0;dropTarget=0;pointerEvents=1;fillColor=none;top=0;left=0;bottom=0;right=0;points=[[0,0.5],[1,0.5]];portConstraint=eastwest;" vertex="1" parent="MH6_EnVXU-AyahLenh14-84">
          <mxGeometry y="60" width="170" height="30" as="geometry" />
        </mxCell>
        <mxCell id="MH6_EnVXU-AyahLenh14-89" value="2" style="shape=partialRectangle;html=1;whiteSpace=wrap;connectable=0;fillColor=none;top=0;left=0;bottom=0;right=0;overflow=hidden;pointerEvents=1;" vertex="1" parent="MH6_EnVXU-AyahLenh14-88">
          <mxGeometry width="84" height="30" as="geometry">
            <mxRectangle width="84" height="30" as="alternateBounds" />
          </mxGeometry>
        </mxCell>
        <mxCell id="MH6_EnVXU-AyahLenh14-90" value="Value 2" style="shape=partialRectangle;html=1;whiteSpace=wrap;connectable=0;fillColor=none;top=0;left=0;bottom=0;right=0;align=left;spacingLeft=6;overflow=hidden;pointerEvents=1;labelBorderColor=none;" vertex="1" parent="MH6_EnVXU-AyahLenh14-88">
          <mxGeometry x="84" width="86" height="30" as="geometry">
            <mxRectangle width="86" height="30" as="alternateBounds" />
          </mxGeometry>
        </mxCell>
        <mxCell id="MH6_EnVXU-AyahLenh14-91" value="" style="shape=partialRectangle;html=1;whiteSpace=wrap;collapsible=0;dropTarget=0;pointerEvents=1;fillColor=none;top=0;left=0;bottom=0;right=0;points=[[0,0.5],[1,0.5]];portConstraint=eastwest;" vertex="1" parent="MH6_EnVXU-AyahLenh14-84">
          <mxGeometry y="90" width="170" height="30" as="geometry" />
        </mxCell>
        <mxCell id="MH6_EnVXU-AyahLenh14-92" value="3" style="shape=partialRectangle;html=1;whiteSpace=wrap;connectable=0;fillColor=none;top=0;left=0;bottom=0;right=0;overflow=hidden;pointerEvents=1;" vertex="1" parent="MH6_EnVXU-AyahLenh14-91">
          <mxGeometry width="84" height="30" as="geometry">
            <mxRectangle width="84" height="30" as="alternateBounds" />
          </mxGeometry>
        </mxCell>
        <mxCell id="MH6_EnVXU-AyahLenh14-93" value="Value 3" style="shape=partialRectangle;html=1;whiteSpace=wrap;connectable=0;fillColor=none;top=0;left=0;bottom=0;right=0;align=left;spacingLeft=6;overflow=hidden;pointerEvents=1;" vertex="1" parent="MH6_EnVXU-AyahLenh14-91">
          <mxGeometry x="84" width="86" height="30" as="geometry">
            <mxRectangle width="86" height="30" as="alternateBounds" />
          </mxGeometry>
        </mxCell>
      </root>
    </mxGraphModel>
  </diagram>
</mxfile>
